<?xml version="1.0" encoding="UTF-8" standalone="no"?>
<!-- Created with Inkscape (http://www.inkscape.org/) -->

<svg
   width="81.575356mm"
   height="79.393372mm"
   viewBox="0 0 81.575356 79.393372"
   version="1.1"
   id="svg1"
   inkscape:version="1.3 (0e150ed6c4, 2023-07-21)"
   sodipodi:docname="logo.svg"
   inkscape:export-filename="logo.png"
   inkscape:export-xdpi="96"
   inkscape:export-ydpi="96"
   xmlns:inkscape="http://www.inkscape.org/namespaces/inkscape"
   xmlns:sodipodi="http://sodipodi.sourceforge.net/DTD/sodipodi-0.dtd"
   xmlns="http://www.w3.org/2000/svg"
   xmlns:svg="http://www.w3.org/2000/svg">
  <sodipodi:namedview
     id="namedview1"
     pagecolor="#444444"
     bordercolor="#4a4a4a"
     borderopacity="1"
     inkscape:showpageshadow="0"
     inkscape:pageopacity="0"
     inkscape:pagecheckerboard="0"
     inkscape:deskcolor="#d1d1d1"
     inkscape:document-units="mm"
     inkscape:zoom="1.4142136"
     inkscape:cx="220.61732"
     inkscape:cy="59.043416"
     inkscape:window-width="950"
     inkscape:window-height="1148"
     inkscape:window-x="2880"
     inkscape:window-y="42"
     inkscape:window-maximized="1"
     inkscape:current-layer="g16" />
  <defs
     id="defs1">
    <clipPath
       clipPathUnits="userSpaceOnUse"
       id="clipPath9">
      <rect
         style="display:block;fill:#ffffff;fill-opacity:1;stroke:#000000;stroke-width:0;stroke-opacity:0"
         id="rect9"
         width="170.22319"
         height="71.755547"
         x="37.777428"
         y="79.434334" />
    </clipPath>
    <inkscape:path-effect
       effect="powerclip"
       id="path-effect15-6"
       is_visible="true"
       lpeversion="1"
       inverse="true"
       flatten="false"
       hide_clip="false"
       message="Use fill-rule evenodd on &lt;b&gt;fill and stroke&lt;/b&gt; dialog if no flatten result after convert clip to paths." />
    <clipPath
       clipPathUnits="userSpaceOnUse"
       id="clipath_lpe_path-effect15-6">
      <circle
         style="display:none;fill:#ff00ff;fill-opacity:1;stroke:#000000;stroke-width:0;stroke-opacity:0"
         id="circle16"
         cx="19.499556"
         cy="104.07946"
         r="49.310764"
         d="M 68.81032,104.07946 A 49.310764,49.310764 0 0 1 19.499556,153.39022 49.310764,49.310764 0 0 1 -29.811209,104.07946 49.310764,49.310764 0 0 1 19.499556,54.768696 49.310764,49.310764 0 0 1 68.81032,104.07946 Z" />
      <path
         id="lpe_path-effect15-6"
         style="fill:#ff00ff;fill-opacity:1;stroke:#000000;stroke-width:0;stroke-opacity:0"
         class="powerclip"
         d="M -41.59879,42.981117 H 80.597897 V 165.1778 H -41.59879 Z M 68.81032,104.07946 A 49.310764,49.310764 0 0 0 19.499556,54.768696 49.310764,49.310764 0 0 0 -29.811209,104.07946 49.310764,49.310764 0 0 0 19.499556,153.39022 49.310764,49.310764 0 0 0 68.81032,104.07946 Z" />
    </clipPath>
  </defs>
  <g
     inkscape:label="Layer 1"
     inkscape:groupmode="layer"
     id="layer1"
     transform="translate(-71.60792,-121.45407)">
    <g
       id="g1">
      <ellipse
         style="display:none;fill:#ffffff;fill-opacity:1;stroke:#000000;stroke-width:0;stroke-opacity:0"
         id="ellipse10"
         cx="-127.47578"
         cy="121.00356"
         rx="31.136284"
         ry="29.278946"
         transform="scale(-1,1)" />
      <g
         id="g16"
         transform="matrix(0.66377023,0,0,0.66377023,48.135723,-0.48974341)">
        <path
           id="path1"
           style="fill-opacity:1;stroke:#000000;stroke-width:0;stroke-opacity:0;fill-rule:evenodd;fill:#cfcfcf"
           d="M 96.156476 211.25591 A 38.341824 38.341824 0 0 0 57.814705 249.59768 A 38.341824 38.341824 0 0 0 96.156476 287.93945 A 38.341824 38.341824 0 0 0 134.49825 249.59768 A 38.341824 38.341824 0 0 0 96.156476 211.25591 z M 96.156476 222.82952 A 28.466125 26.768068 0 0 1 124.62261 249.59768 A 28.466125 26.768068 0 0 1 96.156476 276.36584 A 28.466125 26.768068 0 0 1 67.690344 249.59768 A 28.466125 26.768068 0 0 1 96.156476 222.82952 z " />
        <g
           id="g3"
           style="fill:#788891;fill-opacity:1">
          <path
             id="path2"
             clip-path="url(#clipPath9)"
             style="fill:#788891;fill-opacity:1;stroke:#000000;stroke-width:0;stroke-opacity:0"
             d="M 118.95326 199.77624 A 49.24548 49.124344 90 0 0 168.07737 150.53014 A 49.24548 49.124344 90 0 0 118.95307 101.28493 A 49.24548 49.124344 90 0 0 69.828963 150.53024 A 49.24548 49.124344 90 0 0 118.95326 199.77624 z M 118.8523 183.767 A 38.341824 38.341824 0 0 1 81.278283 152.0972 L 80.374414 152.09464 L 80.375913 151.56602 L 79.008822 151.56214 L 79.007992 151.85487 L 74.274555 151.84144 L 74.276851 151.03178 L 77.394847 151.04062 L 77.403126 148.12115 L 79.864046 148.12813 L 79.870727 145.77231 L 80.65081 145.77452 A 38.341824 38.341824 0 0 1 80.61941 145.31665 A 38.341824 38.341824 0 0 1 119.06976 107.08377 A 38.341824 38.341824 0 0 1 157.30264 145.53411 A 38.341824 38.341824 0 0 1 157.28971 145.70302 L 157.98571 145.70499 L 157.97279 150.26248 L 162.02657 150.27398 L 162.02207 151.86139 L 157.62729 151.84893 L 157.62903 151.23623 L 156.84349 151.234 A 38.341824 38.341824 0 0 1 118.8523 183.767 z M 80.929699 149.83068 A 38.341824 38.341824 0 0 1 80.915499 149.622 L 80.914907 149.83064 L 80.929699 149.83068 z "
             transform="rotate(179.83752,107.48799,197.51094)" />
          <path
             style="fill:#788891;fill-opacity:1;stroke:#000000;stroke-width:0;stroke-opacity:0"
             d="m 134.49586,250.07651 c -0.0394,-6.34263 -0.01,-6.34366 6.91,-6.32765"
             id="path12"
             sodipodi:nodetypes="cc" />
          <path
             style="fill:#788891;fill-opacity:1;stroke:#000000;stroke-width:0;stroke-opacity:0"
             d="m 57.802497,250.38208 c 0.03508,-6.38913 0.01728,-6.40711 -6.144168,-6.39099"
             id="path12-7"
             sodipodi:nodetypes="cc" />
        </g>
        <g
           id="g2"
           style="fill-opacity:1;fill-rule:evenodd;fill:#cfcfcf">
          <path
             style="fill-opacity:1;stroke:#000000;stroke-width:0;stroke-opacity:0;fill-rule:evenodd;fill:#cfcfcf"
             id="path14"
             clip-path="url(#clipath_lpe_path-effect15-6)"
             sodipodi:type="arc"
             sodipodi:cx="19.499554"
             sodipodi:cy="104.07946"
             sodipodi:rx="56.098343"
             sodipodi:ry="56.098343"
             d="M 75.597897,104.07946 A 56.098343,56.098343 0 0 1 19.499554,160.1778 56.098343,56.098343 0 0 1 -36.598789,104.07946 56.098343,56.098343 0 0 1 19.499554,47.981117 56.098343,56.098343 0 0 1 75.597897,104.07946 Z"
             transform="matrix(0.97331624,0,0,0.97331624,77.178133,142.72318)"
             inkscape:path-effect="#path-effect15-6" />
        </g>
        <text
           xml:space="preserve"
           style="font-style:normal;font-variant:normal;font-weight:normal;font-stretch:normal;font-size:17.7499px;font-family:D050000L;-inkscape-font-specification:D050000L;fill:#788891;fill-opacity:1;stroke:#000000;stroke-width:0;stroke-opacity:0"
           x="85.034142"
           y="210.8869"
           id="text16"><tspan
             sodipodi:role="line"
             id="tspan16"
             style="font-style:normal;font-variant:normal;font-weight:normal;font-stretch:normal;font-family:Cantarell;-inkscape-font-specification:Cantarell;fill:#788891;stroke-width:0;fill-opacity:1"
             x="85.034142"
             y="210.8869">lim</tspan></text>
      </g>
    </g>
  </g>
</svg>
