<?xml version="1.0" encoding="UTF-8" standalone="no"?>
<!-- Created with Inkscape (http://www.inkscape.org/) -->

<svg
   width="210mm"
   height="297mm"
   viewBox="0 0 210 297"
   version="1.1"
   id="svg1"
   inkscape:version="1.3 (0e150ed6c4, 2023-07-21)"
   sodipodi:docname="logo.svg"
   inkscape:export-filename="logo.png"
   inkscape:export-xdpi="96"
   inkscape:export-ydpi="96"
   xmlns:inkscape="http://www.inkscape.org/namespaces/inkscape"
   xmlns:sodipodi="http://sodipodi.sourceforge.net/DTD/sodipodi-0.dtd"
   xmlns="http://www.w3.org/2000/svg"
   xmlns:svg="http://www.w3.org/2000/svg">
  <sodipodi:namedview
     id="namedview1"
     pagecolor="#483939"
     bordercolor="#4a4a4a"
     borderopacity="1"
     inkscape:showpageshadow="0"
     inkscape:pageopacity="0"
     inkscape:pagecheckerboard="0"
     inkscape:deskcolor="#d1d1d1"
     inkscape:document-units="mm"
     inkscape:zoom="1.4142136"
     inkscape:cx="411.1826"
     inkscape:cy="563.91766"
     inkscape:window-width="1918"
     inkscape:window-height="1036"
     inkscape:window-x="0"
     inkscape:window-y="42"
     inkscape:window-maximized="1"
     inkscape:current-layer="g16" />
  <defs
     id="defs1">
    <clipPath
       clipPathUnits="userSpaceOnUse"
       id="clipPath9">
      <rect
         style="display:block;fill:#ffffff;fill-opacity:1;stroke:#000000;stroke-width:0;stroke-opacity:0"
         id="rect9"
         width="170.22319"
         height="71.755547"
         x="37.777428"
         y="79.434334" />
    </clipPath>
    <inkscape:path-effect
       effect="powerclip"
       id="path-effect15-6"
       is_visible="true"
       lpeversion="1"
       inverse="true"
       flatten="false"
       hide_clip="false"
       message="Use fill-rule evenodd on &lt;b&gt;fill and stroke&lt;/b&gt; dialog if no flatten result after convert clip to paths." />
    <clipPath
       clipPathUnits="userSpaceOnUse"
       id="clipath_lpe_path-effect15-6">
      <circle
         style="display:none;fill:#ff00ff;fill-opacity:1;stroke:#000000;stroke-width:0;stroke-opacity:0"
         id="circle16"
         cx="19.499556"
         cy="104.07946"
         r="49.310764"
         d="M 68.81032,104.07946 A 49.310764,49.310764 0 0 1 19.499556,153.39022 49.310764,49.310764 0 0 1 -29.811209,104.07946 49.310764,49.310764 0 0 1 19.499556,54.768696 49.310764,49.310764 0 0 1 68.81032,104.07946 Z" />
      <path
         id="lpe_path-effect15-6"
         style="fill:#ff00ff;fill-opacity:1;stroke:#000000;stroke-width:0;stroke-opacity:0"
         class="powerclip"
         d="M -41.59879,42.981117 H 80.597897 V 165.1778 H -41.59879 Z M 68.81032,104.07946 A 49.310764,49.310764 0 0 0 19.499556,54.768696 49.310764,49.310764 0 0 0 -29.811209,104.07946 49.310764,49.310764 0 0 0 19.499556,153.39022 49.310764,49.310764 0 0 0 68.81032,104.07946 Z" />
    </clipPath>
  </defs>
  <g
     inkscape:label="Layer 1"
     inkscape:groupmode="layer"
     id="layer1">
    <g
       id="g1">
      <ellipse
         style="display:none;fill:#ffffff;fill-opacity:1;stroke:#000000;stroke-width:0;stroke-opacity:0"
         id="ellipse10"
         cx="-127.47578"
         cy="121.00356"
         rx="31.136284"
         ry="29.278946"
         transform="scale(-1,1)" />
      <g
         id="g16"
         transform="matrix(0.66377023,0,0,0.66377023,48.135723,-0.48974341)">
        <rect
           style="fill:#000000;stroke:#000000;stroke-width:0;stroke-opacity:0"
           id="rect1"
           width="122.89698"
           height="119.60972"
           x="35.361931"
           y="183.7139" />
        <path
           id="path2"
           clip-path="url(#clipPath9)"
           style="fill:#55d400;fill-opacity:1;stroke:#000000;stroke-width:0;stroke-opacity:0"
           d="m 118.95309,199.77622 a 49.24548,49.124344 90 0 0 49.12411,-49.2461 49.24548,49.124344 90 0 0 -49.1243,-49.24522 49.24548,49.124344 90 0 0 -49.124106,49.24532 49.24548,49.124344 90 0 0 49.124296,49.246 z m -36.852075,-47.67671 -1.72677,-0.005 0.0015,-0.52862 -1.367091,-0.004 -8.3e-4,0.29272 -4.733437,-0.0134 0.0023,-0.80967 3.117996,0.009 0.0083,-2.91947 2.46092,0.007 0.0067,-2.35582 1.034661,0.003 -0.0067,2.35582 0.02102,6e-5 -0.0048,1.69952 1.192702,0.003 z m 79.920885,-0.23814 -4.39478,-0.0125 0.002,-0.6127 -0.85949,-0.002 0.0157,-5.53221 1.20049,0.003 -0.0129,4.55749 4.05378,0.0115 z"
           transform="rotate(179.83752,107.48799,197.51094)" />
        <ellipse
           style="fill:#ffffff;fill-opacity:1;stroke:#000000;stroke-width:0;stroke-opacity:0"
           id="path9"
           cx="96.283592"
           cy="248.79916"
           rx="37.468472"
           ry="33.42271" />
        <path
           style="fill:#55d400;fill-opacity:1;stroke:#000000;stroke-width:0;stroke-opacity:0"
           d="m 134.49586,250.07651 c -0.0394,-6.34263 -0.01,-6.34366 6.91,-6.32765"
           id="path12"
           sodipodi:nodetypes="cc" />
        <rect
           style="fill:#ffffff;fill-opacity:1;stroke:#000000;stroke-width:0;stroke-opacity:0"
           id="rect12-2-3"
           width="4.7330651"
           height="0.80967474"
           x="126.41817"
           y="246.67366" />
        <rect
           style="fill:#ffffff;fill-opacity:1;stroke:#000000;stroke-width:0;stroke-opacity:0"
           id="rect12-2-2-6"
           width="1.0348396"
           height="5.6694007"
           x="124.53802"
           y="247.08907" />
        <path
           style="fill:#ff0000;fill-opacity:1;stroke:#000000;stroke-width:0;stroke-opacity:0"
           d="m 124.81642,253.66398 c -0.0394,-6.34263 -0.01,-6.34366 6.91,-6.32765"
           id="path12-1"
           sodipodi:nodetypes="cc" />
        <circle
           style="fill:#f9f9f9;fill-opacity:1;stroke:#000000;stroke-width:0;stroke-opacity:0"
           id="path1"
           r="38.341824"
           cy="249.59796"
           cx="96.156509" />
        <ellipse
           style="fill:#000000;fill-opacity:1;stroke:#000000;stroke-width:0;stroke-opacity:0"
           id="path1-5"
           cx="96.156509"
           cy="249.59796"
           rx="28.466125"
           ry="26.768068" />
        <path
           style="fill:#55d400;fill-opacity:1;stroke:#000000;stroke-width:0;stroke-opacity:0"
           d="m 57.802497,250.38208 c 0.03508,-6.38913 0.01728,-6.40711 -6.144168,-6.39099"
           id="path12-7"
           sodipodi:nodetypes="cc" />
        <path
           style="fill:#f9f9f9;fill-opacity:1;stroke:#000000;stroke-width:0;stroke-opacity:0"
           id="path14"
           clip-path="url(#clipath_lpe_path-effect15-6)"
           inkscape:path-effect="#path-effect15-6"
           sodipodi:type="arc"
           sodipodi:cx="19.499554"
           sodipodi:cy="104.07946"
           sodipodi:rx="56.098343"
           sodipodi:ry="56.098343"
           d="M 75.597897,104.07946 A 56.098343,56.098343 0 0 1 19.499554,160.1778 56.098343,56.098343 0 0 1 -36.598789,104.07946 56.098343,56.098343 0 0 1 19.499554,47.981117 56.098343,56.098343 0 0 1 75.597897,104.07946 Z"
           transform="matrix(0.97331624,0,0,0.97331624,77.178133,142.72318)" />
        <text
           xml:space="preserve"
           style="font-style:normal;font-variant:normal;font-weight:normal;font-stretch:normal;font-size:17.7499px;font-family:D050000L;-inkscape-font-specification:D050000L;fill:#55d400;fill-opacity:1;stroke:#000000;stroke-width:0;stroke-opacity:0"
           x="85.034142"
           y="210.8869"
           id="text16"><tspan
             sodipodi:role="line"
             id="tspan16"
             style="font-style:normal;font-variant:normal;font-weight:normal;font-stretch:normal;font-family:Cantarell;-inkscape-font-specification:Cantarell;stroke-width:0;fill:#55d400"
             x="85.034142"
             y="210.8869">lim</tspan></text>
      </g>
    </g>
  </g>
</svg>
